PathFileType	4	(X/Y/Z)	Kaydara																																																																																																																									
DataRate	CameraRate	NumFrames	NumMarkers	Units	OrigDataRate	OrigDataStartFrame	OrigNumFrames																																																																																																																					
30	30	4	41	mm	30	111	176																																																																																																																					
Frame#	Time	SALE_LFHD			SALE_RFHD			SALE_LBHD			SALE_RBHD			SALE_LFTShould			SALE_RFTShould			SALE_LRRShould			SALE_RRRShould			SALE_T10			SALE_STRN			SALE_TRUN			SALE_LSHO			SALE_LUPA			SALE_LELB			SALE_LFRM			SALE_LWRA			SALE_LWRB			SALE_LFIN			SALE_RSHO			SALE_RUPA			SALE_RELB			SALE_RFRM			SALE_RWRB			SALE_RFIN			SALE_LFWT			SALE_RFWT			SALE_LBWT			SALE_RBWT			SALE_LTHI			SALE_LKNE			SALE_RWRA			SALE_LSHN			SALE_LANK			SALE_LHEE			SALE_LTOE			SALE_RTHI			SALE_RKNE			SALE_RSHN			SALE_RANK			SALE_RHEE			SALE_RTOE		
		X1	Y1	Z1	X2	Y2	Z2	X3	Y3	Z3	X4	Y4	Z4	X5	Y5	Z5	X6	Y6	Z6	X7	Y7	Z7	X8	Y8	Z8	X9	Y9	Z9	X10	Y10	Z10	X11	Y11	Z11	X12	Y12	Z12	X13	Y13	Z13	X14	Y14	Z14	X15	Y15	Z15	X16	Y16	Z16	X17	Y17	Z17	X18	Y18	Z18	X19	Y19	Z19	X20	Y20	Z20	X21	Y21	Z21	X22	Y22	Z22	X23	Y23	Z23	X24	Y24	Z24	X25	Y25	Z25	X26	Y26	Z26	X27	Y27	Z27	X28	Y28	Z28	X29	Y29	Z29	X30	Y30	Z30	X31	Y31	Z31	X32	Y32	Z32	X33	Y33	Z33	X34	Y34	Z34	X35	Y35	Z35	X36	Y36	Z36	X37	Y37	Z37	X38	Y38	Z38	X39	Y39	Z39	X40	Y40	Z40	X41	Y41	Z41
																																																																																																																												
111	3.677	189.10166	1605.34576	-807.39418	191.17289	1566.59866	-935.93254	56.06918	1606.59378	-814.5681	64.18603	1567.8833	-936.69662	195.67936	1347.50259	-801.95854	54.03683	1342.81433	-824.74541	203.57239	1407.13135	-917.94968	60.80404	1413.20145	-928.66653	143.32797	1259.25362	-997.33574	116.8862	1269.73068	-766.30188	112.59616	1178.6557	-735.354	315.59881	1387.46933	-862.32895	383.17101	1186.94893	-902.36267	385.45486	1079.77303	-931.7672	401.3287	978.54675	-866.21849	319.73156	878.16368	-767.14035	389.89189	853.08762	-787.16949	380.51014	851.51062	-725.21851	-34.89341	1386.58325	-913.2579	-33.13654	1185.82115	-1035.68848	-89.15257	1087.76474	-1040.54588	-82.70429	987.71248	-1087.8923	-125.23714	853.02071	-1115.92827	-154.47378	796.24352	-1095.52826	261.52092	915.81825	-861.90567	-13.39963	920.96657	-840.58449	188.88365	984.42902	-1019.23851	11.97408	983.63251	-1012.95769	229.06672	660.31212	-1080.93864	239.96609	473.17284	-1056.75529	-105.10748	827.77596	-1046.4254	238.07404	306.59245	-1186.26244	236.65199	198.24396	-1343.53577	196.84677	201.88446	-1422.13745	206.56109	66.07686	-1283.19641	-33.76073	654.94019	-896.25443	7.39249	558.75511	-727.02202	58.62517	367.19288	-676.51932	10.01542	108.01867	-680.19791	48.90999	42.30402	-741.51299	21.48194	75.77245	-554.58275
112	3.71	180.78945	1610.69183	-751.9651	183.14899	1569.48944	-879.60434	47.96698	1612.05307	-759.55513	56.17108	1570.9285	-880.71083	189.91869	1353.07022	-742.91206	47.96563	1345.33813	-761.94191	193.50306	1413.21884	-857.79007	50.15256	1416.15448	-865.62485	134.18752	1264.73045	-936.35925	113.17914	1274.5282	-704.04961	111.46287	1183.03139	-673.86276	307.78498	1393.44376	-805.7328	370.2607	1193.35403	-854.94301	371.34777	1087.22031	-884.62715	391.63933	983.73123	-823.91235	314.54697	874.76547	-730.13596	385.37651	853.06389	-752.45331	372.59201	838.20595	-691.12198	-44.68649	1386.39999	-847.21413	-43.2451	1185.35278	-968.16101	-97.36273	1086.17432	-971.77795	-91.34771	985.89401	-1018.10318	-132.78715	850.91682	-1043.66089	-156.16191	790.80589	-1023.26515	258.02582	919.57848	-804.8407	-15.47101	928.70781	-782.87941	187.71566	987.32101	-962.23007	12.17861	995.59898	-953.99902	223.46107	642.82806	-1003.02811	234.73	457.88559	-959.62196	-107.16368	825.78781	-976.62514	235.78175	308.87684	-1111.18774	235.84747	225.75874	-1282.3349	198.19065	250.06027	-1354.81049	203.2098	74.34929	-1262.85522	-37.93423	666.03302	-844.66644	11.55524	566.35284	-676.59462	62.41224	364.28715	-644.87183	8.01923	110.36696	-665.59235	47.62059	45.845	-737.08389	30.95281	66.2023	-546.91631
113	3.743	174.79506	1615.82794	-695.46555	176.65319	1572.20795	-822.65602	41.70407	1616.86066	-702.74643	49.59329	1573.75565	-823.34625	185.55311	1356.09619	-686.05911	43.59403	1345.83206	-700.31189	185.35563	1420.17899	-800.10376	40.75054	1419.68704	-803.74062	126.14839	1271.13243	-880.06721	110.96724	1276.13045	-645.29976	111.30807	1183.84964	-617.17796	301.75331	1399.61533	-750.24734	361.0799	1198.13957	-803.62144	357.15881	1094.22035	-838.3535	381.91826	986.67625	-785.52078	309.60752	868.69125	-695.99243	378.86692	850.07889	-725.70335	368.55995	823.405	-667.36252	-52.79616	1386.33728	-782.20497	-57.27562	1183.67455	-900.31609	-107.33865	1082.26418	-897.44774	-101.41763	981.14952	-942.621	-140.67554	844.62952	-961.3118	-159.16203	783.06396	-940.20416	252.52014	921.32576	-748.21854	-20.61732	939.93813	-728.25981	189.54962	987.96806	-909.22279	13.07409	1003.65845	-901.08849	218.83163	622.53891	-915.79361	228.8765	445.89352	-852.28943	-110.16945	822.17422	-896.26999	228.62778	312.65163	-1016.00929	230.21936	253.59369	-1196.81534	192.78294	286.6795	-1266.25	200.84509	103.11666	-1194.57817	-45.8147	679.89372	-796.0421	11.69643	564.81544	-641.75659	65.73595	361.80687	-623.98479	10.87412	108.88603	-656.85188	48.19697	46.98236	-735.36995	31.39683	62.24587	-543.72517
114	3.777	171.06195	1625.01907	-638.70853	171.36316	1582.53143	-766.29814	37.84357	1625.55008	-644.18327	44.17854	1583.57376	-765.45586	184.52446	1362.98874	-632.53422	42.05101	1351.18362	-642.3082	179.89632	1428.47641	-747.21382	33.83646	1425.60059	-744.74403	118.92303	1278.65486	-825.69489	112.33784	1279.69086	-591.68007	114.01231	1187.75681	-563.09292	298.60056	1407.73041	-702.20985	354.89212	1203.89702	-755.48218	346.94382	1097.99988	-788.73001	373.63346	988.87558	-748.98857	306.14943	861.55411	-667.93404	373.63041	847.39799	-704.19731	367.02137	812.60643	-650.40863	-58.51099	1388.66089	-719.04213	-70.31465	1179.45885	-831.77505	-115.91409	1077.86415	-820.78156	-109.61138	975.82428	-862.64458	-146.39778	837.66869	-872.22939	-162.55041	777.37617	-845.61554	249.8909	926.17447	-696.39908	-24.83135	948.97095	-675.54108	189.13054	993.31993	-858.25043	10.70713	1014.18396	-847.52304	212.14489	617.1133	-829.76166	224.22909	450.65674	-741.73416	-111.89991	819.83238	-808.18771	220.33131	319.12735	-906.58562	220.32972	266.62867	-1089.25766	181.60378	300.56705	-1158.80302	195.23682	118.55885	-1085.77744	-44.54619	683.15491	-761.81206	12.95102	563.4861	-615.99743	64.74494	359.70791	-612.24476	10.85177	107.78226	-657.15477	47.03814	46.55464	-735.95795	32.32596	61.89714	-543.81229
